<?xml version="1.0" standalone="no"?><!DOCTYPE svg PUBLIC "-//W3C//DTD SVG 1.1//EN" "http://www.w3.org/Graphics/SVG/1.1/DTD/svg11.dtd"><svg t="1539703523601" class="icon" style="" viewBox="0 0 1024 1024" version="1.1" xmlns="http://www.w3.org/2000/svg" p-id="28527" xmlns:xlink="http://www.w3.org/1999/xlink" width="200" height="200"><defs><style type="text/css"></style></defs><path d="M1022.306364 319.860915c-14.947324-164.51903-131.394657-283.880993-277.126142-283.880993-97.088678 0-185.984884 52.246707-236.006231 135.98323-49.568398-84.819663-134.821317-136.002923-230.354213-136.002924C133.107987 35.960228 16.64096 155.322192 1.71333 319.841222c-1.181607 7.266881-6.026194 45.511549 8.704502 107.880685 21.229532 89.959652 70.266208 171.785911 141.773102 236.577341l356.746735 323.740524 21.190146-18.886013 0.551416 0.177241 0.315096-0.964979 340.814739-304.027386c71.506895-64.811124 120.54357-146.617689 141.773102-236.597035 14.730696-62.369137 9.886109-100.613805 8.724196-107.880685zM502.576687 929.097294L178.658923 635.113564c-65.598861-59.434814-110.499913-134.2699-129.897956-216.430948-13.942958-59.021251-8.212166-92.362252-8.192473-92.578879l0.295402-1.989038c12.800739-144.136316 112.863127-248.767583 237.955882-248.767583 92.303171 0 173.558321 56.717118 212.118084 147.996231l1.280074 3.052484-160.166779 160.166778 293.136912 39.071793-224.347713 205.658634 166.35052 103.96169-64.614189 193.842568z m472.662346-510.394984c-19.378349 82.161048-64.299094 157.015828-129.779795 216.33248L556.024694 893.27492l58.33198-174.976249-148.744581-92.972748 248.29494-227.597131-297.666404-39.701983 92.480413-92.480412 0.334788 0.768044 0.807431-1.89057 16.069851-16.069851-6.538224-6.538223 7.798604-18.492144c37.949266-89.880878 123.497586-147.976537 217.98673-147.976537 125.073062 0 225.155144 104.631267 238.211897 250.63846 0.05908 0.334789 5.789872 33.695482-8.153086 92.716734z" fill="" p-id="28528"></path></svg>