<?xml version="1.0" standalone="no"?><!DOCTYPE svg PUBLIC "-//W3C//DTD SVG 1.1//EN" "http://www.w3.org/Graphics/SVG/1.1/DTD/svg11.dtd"><svg t="1539699529646" class="icon" style="" viewBox="0 0 1024 1024" version="1.1" xmlns="http://www.w3.org/2000/svg" p-id="2226" xmlns:xlink="http://www.w3.org/1999/xlink" width="200" height="200"><defs><style type="text/css"></style></defs><path d="M513.666 64.134c-17.104 0-33.904 1.032-50.431 2.977-40.505 4.583-79.33 14.702-115.828 29.397 0 0 300.947 297.82 308.96 308.891L656.367 87.804c-8.969-3.053-18.131-5.802-27.369-8.362C592.237 69.553 553.561 64.134 513.666 64.134L513.666 64.134zM828.014 193.516c-12.064-12.064-24.703-23.215-37.756-33.556-31.916-25.352-66.504-45.735-102.66-61.085 0 0 2.215 423.265 0 436.781l224.637-224.593c-4.203-8.478-8.742-16.917-13.518-25.199C879.666 252.879 856.229 221.688 828.014 193.516L828.014 193.516zM926.621 346.301c0 0-297.736 300.91-308.885 308.924l317.631 0c3.053-8.969 5.805-18.133 8.322-27.371 9.924-36.842 15.35-75.399 15.35-115.332 0-17.067-1.07-33.903-3.021-50.432C951.438 421.584 941.362 382.76 926.621 346.301L926.621 346.301zM484.917 688.668l224.632 224.595c8.553-4.237 16.916-8.704 25.236-13.513 32.986-18.977 64.139-42.452 92.391-70.703 12.021-12.027 23.135-24.703 33.518-37.756 25.309-31.921 45.738-66.468 61.082-102.662C921.778 688.629 498.474 690.847 484.917 688.668L484.917 688.668zM369.663 618.118l0 317.63c9.013 3.054 18.17 5.841 27.372 8.326 36.804 9.926 75.403 15.345 115.337 15.345 17.023 0 33.859-1.07 50.353-2.978 40.506-4.62 79.332-14.695 115.828-29.436C678.59 927.006 377.679 629.267 369.663 618.118L369.663 618.118zM338.051 485.643 113.495 710.235c4.203 8.592 8.747 16.992 13.518 25.236 18.976 33.062 42.451 64.213 70.703 92.428 12.026 12.065 24.702 23.173 37.756 33.52 31.952 25.39 66.429 45.736 102.698 61.08C338.169 922.5 335.878 499.197 338.051 485.643L338.051 485.643zM82.267 395.89c-9.888 36.804-15.307 75.402-15.307 115.336 0 17.024 1.069 33.897 3.015 50.393 4.583 40.542 14.622 79.369 29.435 115.789 0 0 297.706-300.911 308.853-308.89L90.592 368.518C87.538 377.449 84.789 386.65 82.267 395.89L82.267 395.89zM289.073 125.521c-33.061 19.013-64.214 42.494-92.391 70.665-12.139 12.104-23.21 24.779-33.556 37.756-25.352 31.921-45.736 66.506-61.119 102.736 0 0 423.377-2.253 436.895-0.076L314.305 112.009C305.757 116.282 297.318 120.751 289.073 125.521L289.073 125.521z" p-id="2227" fill="#ffffff"></path></svg>