<?xml version="1.0" standalone="no"?><!DOCTYPE svg PUBLIC "-//W3C//DTD SVG 1.1//EN" "http://www.w3.org/Graphics/SVG/1.1/DTD/svg11.dtd"><svg t="1539702255514" class="icon" style="" viewBox="0 0 1024 1024" version="1.1" xmlns="http://www.w3.org/2000/svg" p-id="12890" xmlns:xlink="http://www.w3.org/1999/xlink" width="200" height="200"><defs><style type="text/css"></style></defs><path d="M384 128c23.466667 0 42.666667 19.2 42.666667 42.666667v213.333333c0 23.466667-19.2 42.666667-42.666667 42.666667H170.666667c-23.466667 0-42.666667-19.2-42.666667-42.666667V170.666667c0-23.466667 19.2-42.666667 42.666667-42.666667h213.333333m0-42.666667H170.666667C123.733333 85.333333 85.333333 123.733333 85.333333 170.666667v213.333333c0 46.933333 38.4 85.333333 85.333334 85.333333h213.333333c46.933333 0 85.333333-38.4 85.333333-85.333333V170.666667c0-46.933333-38.4-85.333333-85.333333-85.333334zM853.333333 128c23.466667 0 42.666667 19.2 42.666667 42.666667v213.333333c0 23.466667-19.2 42.666667-42.666667 42.666667H640c-23.466667 0-42.666667-19.2-42.666667-42.666667V170.666667c0-23.466667 19.2-42.666667 42.666667-42.666667h213.333333m0-42.666667H640c-46.933333 0-85.333333 38.4-85.333333 85.333334v213.333333c0 46.933333 38.4 85.333333 85.333333 85.333333h213.333333c46.933333 0 85.333333-38.4 85.333334-85.333333V170.666667c0-46.933333-38.4-85.333333-85.333334-85.333334zM384 597.333333c23.466667 0 42.666667 19.2 42.666667 42.666667v213.333333c0 23.466667-19.2 42.666667-42.666667 42.666667H170.666667c-23.466667 0-42.666667-19.2-42.666667-42.666667V640c0-23.466667 19.2-42.666667 42.666667-42.666667h213.333333m0-42.666666H170.666667c-46.933333 0-85.333333 38.4-85.333334 85.333333v213.333333c0 46.933333 38.4 85.333333 85.333334 85.333334h213.333333c46.933333 0 85.333333-38.4 85.333333-85.333334V640c0-46.933333-38.4-85.333333-85.333333-85.333333zM748.8 917.333333c-12.8 0-21.333333-8.533333-21.333333-21.333333V597.333333c0-12.8 8.533333-21.333333 21.333333-21.333333s21.333333 8.533333 21.333333 21.333333v298.666667c0 12.8-10.666667 21.333333-21.333333 21.333333zM898.133333 917.333333c-12.8 0-21.333333-8.533333-21.333333-21.333333V597.333333c0-12.8 8.533333-21.333333 21.333333-21.333333s21.333333 8.533333 21.333334 21.333333v298.666667c0 12.8-10.666667 21.333333-21.333334 21.333333zM599.466667 917.333333c-12.8 0-21.333333-8.533333-21.333334-21.333333V597.333333c0-12.8 8.533333-21.333333 21.333334-21.333333s21.333333 8.533333 21.333333 21.333333v298.666667c0 12.8-10.666667 21.333333-21.333333 21.333333z" p-id="12891"></path></svg>