<?xml version="1.0" standalone="no"?><!DOCTYPE svg PUBLIC "-//W3C//DTD SVG 1.1//EN" "http://www.w3.org/Graphics/SVG/1.1/DTD/svg11.dtd"><svg t="1539704331644" class="icon" style="" viewBox="0 0 1024 1024" version="1.1" xmlns="http://www.w3.org/2000/svg" p-id="35930" xmlns:xlink="http://www.w3.org/1999/xlink" width="200" height="200"><defs><style type="text/css"></style></defs><path d="M759.466667 499.2c-38.4-8.533333-21.333333-29.866667-21.333334-29.866667s38.4-64-8.533333-110.933333c-59.733333-59.733333-200.533333 8.533333-200.533333 8.533333-55.466667 17.066667-38.4-8.533333-29.866667-51.2 0-46.933333-17.066667-132.266667-157.866667-81.066666-140.8 51.2-264.533333 221.866667-264.533333 221.866666-85.333333 115.2-72.533333 204.8-72.533333 204.8 21.333333 196.266667 226.133333 247.466667 388.266666 260.266667 174.933333 12.8 396.8-59.733333 465.066667-204.8 68.266667-149.333333-59.733333-209.066667-98.133333-217.6z m-358.4 366.933333c-166.4 8.533333-302.933333-76.8-302.933334-187.733333 0-110.933333 136.533333-204.8 302.933334-209.066667 166.4-8.533333 302.933333 59.733333 302.933333 174.933334 0 110.933333-136.533333 217.6-302.933333 221.866666z m-34.133334-324.266666c-170.666667 21.333333-149.333333 179.2-149.333333 179.2s0 46.933333 46.933333 76.8c98.133333 55.466667 200.533333 21.333333 251.733334-46.933334 51.2-68.266667 21.333333-230.4-149.333334-209.066666z m-42.666666 221.866666c-29.866667 4.266667-55.466667-12.8-55.466667-42.666666 0-25.6 21.333333-55.466667 55.466667-55.466667 34.133333-4.266667 59.733333 17.066667 59.733333 42.666667 0 29.866667-25.6 51.2-59.733333 55.466666z m102.4-85.333333c-8.533333 8.533333-25.6 8.533333-29.866667-4.266667-4.266667-8.533333-4.266667-25.6 8.533333-34.133333 12.8-8.533333 25.6-8.533333 29.866667 4.266667 4.266667 12.8 0 25.6-8.533333 34.133333z m413.866666-247.466667c12.8 0 25.6-8.533333 25.6-21.333333v-4.266667c21.333333-187.733333-153.6-153.6-153.6-153.6-17.066667 0-25.6 12.8-25.6 29.866667 0 17.066667 12.8 29.866667 25.6 29.866667 128-29.866667 98.133333 93.866667 98.133334 93.866666 0 12.8 12.8 25.6 29.866666 25.6z m-21.333333-324.266666c-59.733333-12.8-119.466667 0-136.533333 0h-4.266667c-17.066667 4.266667-29.866667 21.333333-29.866667 38.4 0 21.333333 17.066667 38.4 38.4 38.4 0 0 21.333333-4.266667 38.4-8.533334 12.8-4.266667 136.533333-4.266667 200.533334 98.133334 34.133333 76.8 12.8 128 12.8 136.533333 0 0-8.533333 21.333333-8.533334 38.4 0 21.333333 17.066667 38.4 38.4 38.4 17.066667 0 34.133333-4.266667 38.4-34.133333 68.266667-217.6-81.066667-320-187.733333-345.6z" fill="#ffffff" p-id="35931"></path></svg>