<?xml version="1.0" standalone="no"?><!DOCTYPE svg PUBLIC "-//W3C//DTD SVG 1.1//EN" "http://www.w3.org/Graphics/SVG/1.1/DTD/svg11.dtd"><svg t="1539704109094" class="icon" style="" viewBox="0 0 1024 1024" version="1.1" xmlns="http://www.w3.org/2000/svg" p-id="34711" xmlns:xlink="http://www.w3.org/1999/xlink" width="200" height="200"><defs><style type="text/css"></style></defs><path d="M959.312722 404.165016c0-9.907651 0-7.187703-9.907651-7.187703h-267.524986l-39.658231-70.61836-108.965738-209.4278h-19.84293l-99.06218 209.4278-39.654138 70.61836h-310.008567v4.496408l55.912428 39.654138 156.795069 138.79409-35.58138 317.240271c0 9.907651 2.035356 9.907651 21.846564 9.907651l258.654968-158.621671 258.109546 158.621671c9.93528 0 10.177803 0 20.085454-9.907651l-49.409317-317.240271 148.683321-127.548978 59.527768-48.207955z m-653.959176 303.975153l287.340288-234.193857-267.52908-45.853327h406.245398l-247.716848 224.286206 257.621429 55.759955h-435.961187z" p-id="34712" fill="#ffffff"></path></svg>