<?xml version="1.0" standalone="no"?><!DOCTYPE svg PUBLIC "-//W3C//DTD SVG 1.1//EN" "http://www.w3.org/Graphics/SVG/1.1/DTD/svg11.dtd"><svg t="1539944654613" class="icon" style="" viewBox="0 0 1024 1024" version="1.1" xmlns="http://www.w3.org/2000/svg" p-id="5726" xmlns:xlink="http://www.w3.org/1999/xlink" width="200" height="200"><defs><style type="text/css"></style></defs><path d="M346.357937 350.900905c-0.021489 0.01228-0.042979 0.024559-0.064468 0.037862C346.327238 350.98277 346.352821 350.986863 346.357937 350.900905zM721.022059 171.497932c0.11461 0.194428 0.161682 0.402159 0.252757 0.597611C721.98806 173.255972 722.080158 173.497473 721.022059 171.497932zM126.51902 885.3328c-5.862521-3.76986 3.482311-32.921807 15.897062-44.36851 60.769039-56.022944 88.777953-49.734728 228.248448-69.964468 30.03506-8.987698 88.069825-38.538735 102.426811-68.540026l0.257873-76.356039c0 0-6.373151-11.666714-9.503445-13.017478-41.658795-17.963117-81.294514-81.131809-95.303576-125.691677-35.71134-2.025123-76.382645-44.125987-72.806189-89.391936 1.797949-22.753213 31.371498-35.942607 49.535183-47.061852-0.772596-1.011027-7.694239-36.236296-8.463766-56.662511-9.513678-92.850711 44.983517-127.205147 44.983517-127.205147s-9.961886-43.895743-8.744151-44.26311c0 0 31.628348-2.454912 86.884836-18.198477 157.641343-44.912909 224.333278 74.28282 230.217289 84.214007 42.374086 89.348957 16.910135 148.406005 15.876596 161.532977 17.519002 11.263531 38.635949 25.435299 41.127699 47.642067 4.812609 42.8796-32.66905 88.838328-66.36857 92.241844-9.658987 39.666418-53.262064 110.744243-98.771561 126.354779-4.386914 1.505283-12.583596 10.527774-12.583596 10.527774l-0.252757 71.083965c12.918217 17.58654 47.166229 53.79009 75.878155 62.111616 4.759397 0.320295 15.942087-29.011754 15.942087-29.011754-29.676903-9.518794-45.913703-26.171056-59.084677-44.124963l0.447185-48.722678c54.162574-26.1598 81.722256-74.343195 107.3571-127.540791 38.736233-3.906983 72.103178-72.689532 72.103178-111.585401 0-25.700335-16.678868-47.90608-36.792974-60.826344 1.172709-15.09172 2.551102-45.918819-1.725294-81.401961-3.103688-25.780153-6.848988-56.127322-22.022573-85.010139-6.757914-11.426237-97.376795-156.896376-273.435603-98.712209C388.11804 93.106538 330.221422 91.313705 330.221422 91.313705c-1.38965 0.425695 18.138102 65.850777 18.138102 65.850777s-48.219211 18.597567-48.219211 123.298164c0 14.413268 5.381567 50.987255 4.956895 56.999179-20.863167 12.793374-50.933019 35.300994-46.865377 67.865667 7.831362 62.692854 32.565696 89.10848 80.09213 105.156992 25.347295 52.367695 50.220798 89.402169 101.70231 126.96467l0 56.528458c-13.96506 20.113083-37.310767 35.310204-71.815629 45.654806C209.612507 759.128447 140.22416 775.907599 94.913185 850.389964c-10.080589 16.575514-5.872754 61.769832-5.056156 78.782298l569.982576 0-2.666736-36.679387L126.51902 892.492874 126.51902 885.3328zM693.504332 200.658066c0.597611 1.023306 0.714268 3.436262-0.230244 1.689479C693.369256 202.520483 693.414281 200.48615 693.504332 200.658066zM809.539069 790.001595 809.539069 648.024l-46.918589 0 0 141.977595L622.666984 790.001595l0 46.137807 139.955542 0L762.622526 977.472314l46.918589 0L809.541115 836.139401l141.630694 0 0-46.137807L809.539069 790.001595 809.539069 790.001595z" p-id="5727" fill="#ffffff"></path></svg>