<?xml version="1.0" standalone="no"?><!DOCTYPE svg PUBLIC "-//W3C//DTD SVG 1.1//EN" "http://www.w3.org/Graphics/SVG/1.1/DTD/svg11.dtd"><svg t="1539702140748" class="icon" style="" viewBox="0 0 1024 1024" version="1.1" xmlns="http://www.w3.org/2000/svg" p-id="7467" xmlns:xlink="http://www.w3.org/1999/xlink" width="200" height="200"><defs><style type="text/css"></style></defs><path d="M512 134.608l121.136 248.451 270.871 39.867L708.005 616.305l46.265 273.088L512 760.464 269.73 889.393l46.266-273.088L119.993 422.926l270.873-39.867L512 134.608M512 77.923c-21.302 0-40.771 12.251-50.204 31.583l-108.12 221.763-241.724 35.547c-21.109 3.118-38.637 18.047-45.227 38.583-6.563 20.535-1.094 43.066 14.165 58.106l174.921 172.598L214.549 879.82c-3.609 21.274 5.032 42.767 22.286 55.43 9.762 7.163 21.301 10.827 32.896 10.827 8.914 0 17.882-2.16 26.087-6.509L512 824.505l216.239 115.063c8.176 4.349 17.117 6.509 26.03 6.509 11.622 0 23.188-3.664 32.923-10.827 17.256-12.69 25.896-34.181 22.287-55.43l-41.29-243.718L943.11 463.504c15.256-15.04 20.727-37.571 14.164-58.106-6.589-20.536-24.118-35.465-45.228-38.583l-241.722-35.547L562.229 109.533C552.797 90.174 533.328 77.923 512 77.923L512 77.923z" p-id="7468"></path></svg>