<?xml version="1.0" standalone="no"?><!DOCTYPE svg PUBLIC "-//W3C//DTD SVG 1.1//EN" "http://www.w3.org/Graphics/SVG/1.1/DTD/svg11.dtd"><svg t="1711682843861" class="icon" viewBox="0 0 1024 1024" version="1.1" xmlns="http://www.w3.org/2000/svg" p-id="24065" width="32" height="32" xmlns:xlink="http://www.w3.org/1999/xlink"><path d="M300.896 470.46399969v37.76000062h73.44c0 68.60800031 3.648 116.16-0.83200031 139.296-5.376 23.136-31.872 35.904-72.60799969 38.304-11.64799969 0-23.29600031-0.79999969-35.83999969-1.60000031l-12.92800031-48.096c11.616 1.21600031 29.92000031 4.09600031 41.34400031 4.09600031 9.696 0 19.64800031-0.89599969 22.78399969-13.66400062 3.13600031-12.79999969 4.48000031-22.656 4.48000031-64.92799969H240.00000031v-138.36799969h80.70399938v-50.52800062H240.00000031v-50.23999969h134.33599969v147.96799969H300.896z m107.04-110.81599969h55.968a302.23999969 302.23999969 0 0 0-33.6-49.44l47.35999969-18.17599969c12.576 15.936 25.92 36.54400031 35.328 54.87999938l-29.31199969 12.73600031h47.136c12.54400031-20.32000031 20.28799969-48.51199969 30.144-71.64799969l59.20000031 22.20799969c-8.95999969 19.13599969-22.39999969 34.30399969-33.56800031 49.44l69.408 0.73600031v177.91999969l-95.04 0.89599969v24.384h95.04v51.29600062h-95.04V704h-64.896v-89.11999969h-96.12799969v-51.29600062h96.12799969v-26.04799969h-88.128V359.67999969z m192.12799969 136.63999969v-28.92799969h-40.19199938v28.92799969h40.19199938z m-103.74399938 0v-28.92799969h-40.96000031v28.92799969h40.96000031z m-40.96000031-63.23199938h40.96000031v-29.02400062h-40.96000031v29.02400062z m104.51200031-29.02400062v29.02400062h40.19199938v-29.02400062h-40.19199938z" p-id="24066" fill="#ffffff"></path><path d="M752 864.00000031a144 144 0 1 0 0-288 144 144 0 0 0 0 288z m0 63.99999938a208.00000031 208.00000031 0 1 1 0-415.99999969 208.00000031 208.00000031 0 0 1 0 415.99999969z" p-id="24067" fill="#ffffff"></path><path d="M662.36799969 849.728a31.99999969 31.99999969 0 1 1-44.736-45.76000031l224.00000062-218.88a31.99999969 31.99999969 0 0 1 44.736 45.792l-224.00000062 218.84800031z" p-id="24068" fill="#ffffff"></path><path d="M408.00000031 783.99999969a40.00000031 40.00000031 0 0 1 0 80.00000062h-240A103.99999969 103.99999969 0 0 1 63.99999969 759.99999969V231.99999969A103.99999969 103.99999969 0 0 1 168.00000031 128h559.99999969A103.99999969 103.99999969 0 0 1 831.99999969 231.99999969v176.00000062a40.00000031 40.00000031 0 0 1-79.99999969 0v-176.00000062a24 24 0 0 0-24-24H168.00000031a24 24 0 0 0-24 24v528c0 13.248 10.752 24 24 24h240z" p-id="24069" fill="#ffffff"></path></svg>