<?xml version="1.0" standalone="no"?><!DOCTYPE svg PUBLIC "-//W3C//DTD SVG 1.1//EN" "http://www.w3.org/Graphics/SVG/1.1/DTD/svg11.dtd"><svg t="1539702346012" class="icon" style="" viewBox="0 0 1024 1024" version="1.1" xmlns="http://www.w3.org/2000/svg" p-id="18136" xmlns:xlink="http://www.w3.org/1999/xlink" width="200" height="200"><defs><style type="text/css"></style></defs><path d="M941.281043 465.126436C920.593885 260.512269 754.041592 90.146113 549.363979 66.837244c-200.047152-22.781866-395.149689 92.659353-469.016023 280.413528l45.288462 20.782326C187.904601 206.733435 355.301122 99.341542 528.307408 114.756627c203.221448 18.107403 365.580233 190.388165 365.580233 395.940704l0 0.072655 0 0.01228-0.01228 3.315512c-1.50119 182.809559-135.028323 347.731726-314.391387 385.303436-188.956559 39.581484-383.957789-65.12116-453.852672-245.89434l-45.352931 20.808932c81.570807 207.079312 309.844837 324.028884 525.582343 269.673929C818.177308 890.49845 963.404923 683.143868 941.281043 465.126436z" p-id="18137"></path><path d="M718.39472 619.670232l47.597041 17.657148c7.095605-15.127536 12.96529-30.656207 17.375739-46.557362 27.580149-99.366102 3.03308-210.279191-74.463945-289.085024-115.479081-117.420293-304.279075-118.998231-421.703461-3.52222-0.606821 0.597611-1.201361 1.189082-1.802042 1.789763-115.624391 115.624391-116.595508 303.096133-1.720178 419.913699 78.753645 80.075757 191.58441 106.170065 292.63999 78.111009 15.888875-4.41045 31.396057-10.377348 46.523593-17.472953l-17.663288-47.62774c-15.08558 7.373944-30.579459 13.164834-46.590108 17.300015-83.157955 21.473057-175.043688 0.352017-239.473093-65.164139-95.27697-96.878444-94.63945-253.851569 2.936889-351.412558 97.694019-96.077196 255.338433-94.761224 351.415628 2.932796 63.186088 64.25135 83.23368 154.713664 62.188364 236.537228C731.536019 589.089749 725.742059 604.596931 718.39472 619.670232z" p-id="18138"></path><path d="M433.806103 434.18882c12.837376-10.504238 28.095895-18.006096 45.028543-21.049409l-21.021779-45.813419c-16.338107 4.38589-31.751145 10.993378-45.37442 20.287045-38.992059 26.599821-64.818261 71.148433-65.239863 121.918747-0.688685 82.34238 65.506946 149.650345 147.846256 150.33596 0.427742 0.00614 0.846274 0.00614 1.274016 0.00614 81.757049 0 148.382469-65.937758 149.065014-147.852396 0.430812-51.671846-25.501814-97.378841-65.209164-124.461663-13.607926-9.282411-29.033243-15.904225-45.376467-20.287045l-21.051455 45.871747c16.623609 2.936889 31.933293 10.213619 45.073568 20.961404 2.805906 2.293229 5.763261 4.353145 8.341992 6.973832 18.615986 18.931165 28.747741 43.975561 28.526707 70.527286-0.455371 54.349839-45.030589 98.567923-100.227726 98.564853-54.80521-0.458441-99.023294-45.419446-98.564853-100.227726C397.150252 479.335043 411.694503 452.28292 433.806103 434.18882z" p-id="18139"></path></svg>