<?xml version="1.0" standalone="no"?><!DOCTYPE svg PUBLIC "-//W3C//DTD SVG 1.1//EN" "http://www.w3.org/Graphics/SVG/1.1/DTD/svg11.dtd"><svg t="1539702126092" class="icon" style="" viewBox="0 0 1024 1024" version="1.1" xmlns="http://www.w3.org/2000/svg" p-id="6756" xmlns:xlink="http://www.w3.org/1999/xlink" width="200" height="200"><defs><style type="text/css"></style></defs><path d="M760.4736 493.9264a25.6 25.6 0 0 0-36.1984 0L512 706.2016V128a25.6 25.6 0 0 0-51.2 0v578.2016L248.5248 493.9264a25.6 25.6 0 0 0-36.1984 36.1984l256 256a25.4976 25.4976 0 0 0 36.2496-0.0512l256-256a25.6 25.6 0 0 0 0-36.1984z" fill="" p-id="6757"></path><path d="M896 972.8h-819.2C34.4576 972.8 0 938.3424 0 896v-102.4a25.6 25.6 0 0 1 51.2 0v102.4a25.6 25.6 0 0 0 25.6 25.6h819.2a25.6 25.6 0 0 0 25.6-25.6v-102.4a25.6 25.6 0 0 1 51.2 0v102.4c0 42.3424-34.4576 76.8-76.8 76.8z" fill="" p-id="6758"></path></svg>