<?xml version="1.0" standalone="no"?><!DOCTYPE svg PUBLIC "-//W3C//DTD SVG 1.1//EN" "http://www.w3.org/Graphics/SVG/1.1/DTD/svg11.dtd"><svg t="1539702397110" class="icon" style="" viewBox="0 0 1306 1024" version="1.1" xmlns="http://www.w3.org/2000/svg" p-id="21378" xmlns:xlink="http://www.w3.org/1999/xlink" width="255.078125" height="200"><defs><style type="text/css"></style></defs><path d="M0 358.982899c26.670259-186.69181 154.22367-278.298351 318.303739-328.160139 175.675834-53.340517 348.452727-38.266023 510.793432 51.601153 78.851199 43.484117 142.048117 103.782093 174.516258 189.590752 45.223482 120.016164 13.914918 225.537622-72.473529 314.82501-92.186329 95.08527-209.88334 140.88854-339.176115 153.064093-60.877764 5.797882-122.335317-0.579788-183.792869-2.898941-16.813859-0.579788-30.148988 0.579788-44.643694 10.436188-66.095858 43.484117-137.989599 73.053317-215.681222 87.548023-16.813859 2.898941-37.686235 12.755341-49.282-8.117035-12.175553-21.452165 6.377671-34.787294 18.553223-48.702211 30.728776-33.047929 59.718188-66.675647 75.952258-111.899129-17.973435-12.755341-36.526659-25.510682-53.920306-38.845811C66.675647 570.025815 15.654282 499.871439 2.898941 405.945746c-0.579788-2.898941-1.739365-5.218094-2.898941-8.117035C0 385.073369 0 371.73824 0 358.982899zM287.574963 681.345155c1.159576 1.159576 2.319153 2.319153 2.898941 3.478729 19.7128-13.335129 39.4256-26.670259 59.718188-38.845811 7.537247-4.058518 17.393647-7.537247 25.510682-6.377671 67.255435 12.175553 134.51087 19.133012 202.925881 10.436188 102.622517-12.755341 197.127999-45.223482 275.39941-115.957646 92.186329-84.069294 103.202305-197.707787 28.409623-290.473904-31.308564-38.266023-69.574588-67.255435-113.638493-89.287388C648.783031 92.860101 521.809408 79.524971 390.777268 106.775018c-91.606541 18.553223-174.516258 56.819247-239.452539 126.973623-60.297976 64.936282-75.37247 150.74494-37.106447 226.697198 23.191529 46.383058 59.1384 81.750141 102.042729 110.159764 30.148988 19.7128 61.457553 37.106447 93.345905 56.819247C302.069668 645.978073 295.11221 663.37172 287.574963 681.345155z" p-id="21379"></path><path d="M1304.52352 589.158827c-12.755341 37.106447-22.611741 75.952258-40.005388 111.31934-30.148988 60.297976-79.430988 104.361882-136.250234 139.728964-15.654282 9.8564-19.133012 17.973435-8.696823 32.468141 22.031953 30.148988 44.063906 60.877764 66.675647 90.446964 4.638306 6.377671 12.755341 11.015976 15.074494 17.973435 3.478729 9.8564 7.537247 23.191529 4.058518 31.308564-2.898941 6.377671-18.553223 12.755341-26.670259 11.015976-45.80327-11.015976-91.606541-20.872376-135.090658-37.686235-37.686235-14.494706-71.313952-37.106447-107.840611-55.079882-9.276612-4.638306-22.031953-8.117035-31.888353-6.957459-113.638493 16.23407-225.537622 9.8564-333.958021-29.5692-38.266023-13.914918-74.792682-33.047929-112.478917-49.861788 0.579788-2.319153 1.159576-4.638306 1.739365-6.957459 38.845811 0 78.271411 2.898941 117.117223-0.579788 161.181128-13.335129 306.707974-66.095858 422.085832-183.792869 102.622517-105.521458 142.627905-230.755716 107.260823-376.282562-0.579788-1.739365-0.579788-4.058518-0.579788-12.755341 28.409623 20.872376 55.079882 37.106447 78.851199 57.399035 61.457553 53.920306 106.101246 118.276799 117.697011 201.766304 0 1.739365 2.319153 3.478729 3.478729 5.218094C1304.52352 548.57365 1304.52352 568.866238 1304.52352 589.158827z" p-id="21380"></path></svg>