<?xml version="1.0" standalone="no"?><!DOCTYPE svg PUBLIC "-//W3C//DTD SVG 1.1//EN" "http://www.w3.org/Graphics/SVG/1.1/DTD/svg11.dtd"><svg t="1539702514032" class="icon" style="" viewBox="0 0 1024 1024" version="1.1" xmlns="http://www.w3.org/2000/svg" p-id="27551" xmlns:xlink="http://www.w3.org/1999/xlink" width="200" height="200"><defs><style type="text/css"></style></defs><path d="M565.536 421.504a93.952 93.952 0 0 0-35.344 16.96 132.656 132.656 0 0 1-0.192 187.456c-2.88 2.896-5.904 5.552-8.96 8.08l-0.24-0.208a133.056 133.056 0 0 1-33.296 20.32l0.208 0.208a133.12 133.12 0 0 1-88.304 5.216l-3.28-1.008a126.56 126.56 0 0 1-7.52-2.608c-1.376-0.544-2.752-1.024-4.112-1.616a152.624 152.624 0 0 1-16.256-8.256c-0.832-0.512-1.712-0.992-2.544-1.504a121.008 121.008 0 0 1-8.368-5.744 131.92 131.92 0 0 1-15.488-13.072c-0.656-0.624-1.184-1.344-1.808-2L116.352 400.128c-0.656-0.624-1.36-1.168-2-1.808a132.784 132.784 0 0 1 0-187.808 132.88 132.88 0 0 1 177.856-9.024c3.568 2.88 7.008 5.968 10.32 9.264l146.928 146.96a206.16 206.16 0 0 1 30.704-22.688l-151.136-151.088-0.08 0.064-0.112-0.128a169.968 169.968 0 0 0-120.224-49.904 170.016 170.016 0 0 0-120.576 49.984c-66.624 66.624-66.624 174.656 0 241.296L315.28 652.48l0.048-0.048c66.592 66.432 174.448 66.384 240.976-0.112 63.296-63.296 66.288-163.856 9.232-230.816m370.72 198.768l-0.128-0.096 0.016-0.032-0.192-0.176-175.424-175.424-51.904-51.888-0.112 0.096c-66.608-66.432-174.512-66.4-241.088 0.112-63.328 63.28-66.304 163.888-9.2 230.832a93.6 93.6 0 0 0 35.344-16.96 132.08 132.08 0 0 1-38.176-88.384 132.208 132.208 0 0 1 38.608-99.088c2.88-2.88 5.888-5.536 8.976-8.08l0.112 0.128a131.696 131.696 0 0 1 33.344-20.288l-0.176-0.16a133.36 133.36 0 0 1 89.072-4.96l1.168 0.352c3.568 1.072 7.104 2.32 10.592 3.712l1.36 0.512c3.776 1.552 7.504 3.248 11.136 5.184l1.328 0.736a117.872 117.872 0 0 1 12.592 7.808c1.776 1.216 3.52 2.496 5.216 3.824 1.648 1.232 3.232 2.48 4.832 3.824 1.024 0.88 2.016 1.84 3.024 2.736 1.808 1.616 3.664 3.136 5.408 4.88 0.48 0.496 0.944 1.024 1.392 1.536l54.064 54.08 170.128 169.968c0.64 0.608 1.36 1.168 2 1.808a132.704 132.704 0 0 1 0 187.792 132.944 132.944 0 0 1-187.936 0 6.464 6.464 0 0 1-0.704-0.8l-145.008-144.992-1.52-1.488a206.64 206.64 0 0 1-30.832 22.8l9.264 9.264 141.984 141.856 0.064-0.096 0.112 0.128a170.096 170.096 0 0 0 120.336 49.872 170.08 170.08 0 0 0 120.624-49.936c66.528-66.544 66.608-174.336 0.304-240.992" fill="#515151" p-id="27552"></path><path d="M121.952 459.312l121.616 121.584 26.8-26.816-121.632-121.584-26.784 26.816z m241.232-241.248l-26.8 26.8 112.96 112.928a206.944 206.944 0 0 1 30.816-22.784l-116.976-116.944z" fill="#515151" p-id="27553"></path><path d="M543.584 710.176l117.136 117.04 26.816-26.832-113.104-113.008a209.28 209.28 0 0 1-30.848 22.8m236.784-245.808l-26.8 26.8 121.632 121.552 26.832-26.816-121.664-121.536z" fill="#515151" p-id="27554"></path><path d="M549.92 645.808h18.944V626.88H549.92v18.928z m18.944-18.928h18.976v-18.976h-18.976v18.976z m-37.904 0h18.976v-18.976h-18.976v18.976z m37.904-37.936H549.92v18.976h18.944v-18.976z m0 0h18.976v-18.944h-18.976v18.944z m-37.904 0h18.976v-18.944h-18.976v18.944z m37.904-37.92H549.92v18.976h18.944v-18.976z m0 0h18.976v-18.96h-18.976v18.96z m-37.904 0h18.976v-18.96h-18.976v18.96z m37.904-37.904H549.92v18.96h18.944V513.12z m0 0h18.976v-18.96h-18.976v18.96z m-37.904 0h18.976v-18.96h-18.976v18.96z m37.904-37.92H549.92v18.96h18.944V475.2z m0 0h18.976v-18.96h-18.976V475.2z m-37.904 0h18.976v-18.96h-18.976V475.2z m37.904-37.904H549.92v18.96h18.944v-18.96z m18.96-18.96h-18.976v18.96h18.976v-18.96z m-56.864 18.96h18.976v-18.96h-18.976v18.96z m75.824 151.648h-18.96v18.976h18.96v-18.976z m0-37.92h-18.96v18.976h18.96v-18.976z m0-37.904h-18.96v18.96h18.96V513.12z m0-37.92h-18.96v18.96h18.96V475.2z m0-37.904h-18.96v18.96h18.96v-18.96z" fill="#515151" p-id="27555"></path><path d="M962.912 593.376l0.144-0.096-227.616-227.408c-59.232-59.2-145.184-75.136-219.024-48.24l-158.352-158.304A207.872 207.872 0 0 0 208.528 96C93.344 96 0 189.328 0 304.448c0 57.552 23.328 109.632 61.04 147.36l-0.112 0.096 227.488 227.408c59.216 59.184 145.12 75.136 218.928 48.256l158.416 158.288a208 208 0 0 0 149.616 63.344c115.232 0 208.64-93.328 208.64-208.48a207.744 207.744 0 0 0-61.104-147.344m-647.6 59.056l-0.096 0.096L87.728 425.104l0.08-0.08-0.128-0.128c-66.56-66.544-66.56-174.464 0-241.024 66.608-66.56 174.544-66.56 241.136 0l0.096 0.128 0.112-0.096 151.136 151.088c-10.8 6.528-21.104 14.128-30.816 22.784l-145.312-145.248c-0.624-0.656-1.168-1.36-1.808-2.016a132.88 132.88 0 0 0-187.872 0 132.784 132.784 0 0 0 0 187.808c0.656 0.656 1.344 1.184 2 1.808l223.664 223.584c0.624 0.656 1.168 1.36 1.808 2a132.864 132.864 0 0 0 187.856 0c51.712-51.68 51.84-135.344 0.48-187.264a93.728 93.728 0 0 1 35.344-16.96c57.056 66.96 54.096 167.536-9.232 230.816-66.512 66.544-174.368 66.576-240.96 0.128M141.36 371.376a94.624 94.624 0 0 1 0-133.856 94.72 94.72 0 0 1 133.904 0l0.048 0.08 0.08-0.08 147.952 147.904c-53.968 69.2-58.112 164.384-12.512 237.664a94.144 94.144 0 0 1-41.92-24.24l-0.08 0.096L141.344 371.52l0.08-0.096-0.064-0.048m363.776 96.192a94.56 94.56 0 0 1 13.472 110.016 94.512 94.512 0 0 1-13.472-110.016m377.408 206.256a94.56 94.56 0 0 1 0 133.84 94.752 94.752 0 0 1-134-0.08l-0.096 0.08-148.048-147.936c53.888-69.2 58.032-164.384 12.432-237.648a94.336 94.336 0 0 1 42.048 24.256l0.096-0.08L882.56 673.68l-0.08 0.08 0.064 0.064m53.712 187.504c-66.624 66.544-174.608 66.544-241.232 0l-0.128-0.128-0.064 0.08-151.248-151.104a207.472 207.472 0 0 0 30.832-22.8l145.408 145.28c0.624 0.656 1.168 1.376 1.808 2.016 51.92 51.856 136.048 51.856 187.952 0s51.904-135.936 0-187.792c-0.624-0.64-1.36-1.2-2-1.808L683.808 421.472c-0.64-0.656-1.184-1.36-1.808-2a132.992 132.992 0 0 0-187.952 0 132.704 132.704 0 0 0-0.48 187.28 93.84 93.84 0 0 1-35.344 16.96c-57.104-66.96-54.112-167.552 9.2-230.832 66.576-66.512 174.48-66.544 241.088-0.112l0.112-0.08 227.6 227.392-0.096 0.112a0.432 0.432 0 0 1 0.128 0.112c66.608 66.544 66.608 174.448 0 241.024" fill="#515151" p-id="27556"></path></svg>