<?xml version="1.0" standalone="no"?><!DOCTYPE svg PUBLIC "-//W3C//DTD SVG 1.1//EN" "http://www.w3.org/Graphics/SVG/1.1/DTD/svg11.dtd"><svg t="1539615176271" class="icon" style="" viewBox="0 0 1024 1024" version="1.1" xmlns="http://www.w3.org/2000/svg" p-id="13012" xmlns:xlink="http://www.w3.org/1999/xlink" width="200" height="200"><defs><style type="text/css"></style></defs><path d="M981.8 601.5c28-48.5 42.2-100.1 42.2-153.5s-14.2-105-42.2-153.5c-26.5-45.8-64.1-86.7-111.9-121.6C773.8 102.7 646.7 64 512 64s-261.8 38.7-357.8 108.9c-47.8 34.9-85.4 75.9-111.9 121.6C14.2 343 0 394.6 0 448s14.2 105 42.2 153.5c26.5 45.8 64.1 86.7 111.9 121.6C250.2 793.3 377.3 832 512 832c47.3 0 93.6-4.8 138-14l263.1 74.4c3.2 0.9 6.5 1.4 9.8 1.4 10.9 0 21.4-5 28.4-13.8 9-11.5 10.2-27.3 2.9-40l-71.9-126.2c41.9-32.8 75.3-70.6 99.5-112.3zM252 520c-39.8 0-72-32.2-72-72s32.2-72 72-72 72 32.2 72 72-32.2 72-72 72z m260 0c-39.8 0-72-32.2-72-72s32.2-72 72-72 72 32.2 72 72-32.2 72-72 72z m260 0c-39.8 0-72-32.2-72-72s32.2-72 72-72 72 32.2 72 72-32.2 72-72 72z" p-id="13013" fill="#ffffff"></path></svg>