<?xml version="1.0" standalone="no"?><!DOCTYPE svg PUBLIC "-//W3C//DTD SVG 1.1//EN" "http://www.w3.org/Graphics/SVG/1.1/DTD/svg11.dtd"><svg t="1539702199514" class="icon" style="" viewBox="0 0 1024 1024" version="1.1" xmlns="http://www.w3.org/2000/svg" p-id="10387" xmlns:xlink="http://www.w3.org/1999/xlink" width="200" height="200"><defs><style type="text/css"></style></defs><path d="M509.866667 896a106.773333 106.773333 0 0 1-104.384 85.333333H149.184A106.688 106.688 0 0 1 42.666667 874.816V618.517333a106.752 106.752 0 0 1 85.333333-104.405333V149.482667A106.816 106.816 0 0 1 234.816 42.666667h639.701333A106.816 106.816 0 0 1 981.333333 149.482667v639.701333A106.816 106.816 0 0 1 874.517333 896H509.866667z m2.133333-85.333333h362.517333c11.861333 0 21.482667-9.6 21.482667-21.482667V149.482667C896 137.621333 886.4 128 874.517333 128H234.816C222.954667 128 213.333333 137.6 213.333333 149.482667V512h192.149334A106.688 106.688 0 0 1 512 618.517333V810.666667zM128 618.517333v256.298667c0 11.541333 9.6 21.184 21.184 21.184h256.298667c11.541333 0 21.184-9.6 21.184-21.184V618.517333c0-11.541333-9.6-21.184-21.184-21.184H149.184c-11.541333 0-21.184 9.6-21.184 21.184z" fill="#000000" p-id="10388"></path></svg>