<?xml version="1.0" standalone="no"?><!DOCTYPE svg PUBLIC "-//W3C//DTD SVG 1.1//EN" "http://www.w3.org/Graphics/SVG/1.1/DTD/svg11.dtd"><svg t="1539704183989" class="icon" style="" viewBox="0 0 1024 1024" version="1.1" xmlns="http://www.w3.org/2000/svg" p-id="35475" xmlns:xlink="http://www.w3.org/1999/xlink" width="200" height="200"><defs><style type="text/css"></style></defs><path d="M918.67136 594.22848c-15.26656-37.2352-35.32928-70.4064-56.28288-96.06016 9.82016-13.0304 16.0768-32.64256 16.0768-54.58176 0-30.01088-11.6992-55.65952-28.2112-66.07616 2.5792-16.48 3.92576-33.36448 3.92576-50.56128C854.17984 146.34752 706.68032 0 524.69888 0 342.8096 0 195.29728 146.34752 195.29728 326.94912c0 17.36064 1.37728 34.40128 4.00512 51.03104-16.14976 10.70976-27.50592 36.04736-27.50592 65.6064 0 17.15072 3.82592 32.88064 10.19392 45.15584-21.12512 22.8032-41.71392 52.03968-58.58048 85.6384-46.71104 93.10848-39.7376 187.2192-10.97088 202.54592 14.75584 7.85664 53.2352-16.82432 91.0272-62.62656 6.12992 53.89696 31.6352 103.09248 70.6688 142.68672-64.66816 19.12192-107.52768 56.8704-101.78432 95.18592 7.15392 48.41728 89.03808 79.4432 182.95552 69.31072 68.7296-7.44576 124.7936-34.87872 147.1232-68.04864 5.76256 0.25984 11.56352 0.39936 17.40416 0.39936 9.36832 0 18.63552-0.3584 27.79776-1.02016 22.82112 32.79872 76.86144 60.31616 142.4064 68.68992 91.05792 11.56864 169.87392-18.18624 175.99488-66.46912 4.90112-38.49088-37.76256-77.15968-101.35808-97.15072 37.82144-38.016 63.12192-84.98304 70.65984-136.51712 33.55904 45.888 67.87072 75.2 85.81888 71.25888C942.36288 787.97312 957.5232 689.01376 918.67136 594.22848z" p-id="35476" fill="#ffffff"></path></svg>