<?xml version="1.0" standalone="no"?><!DOCTYPE svg PUBLIC "-//W3C//DTD SVG 1.1//EN" "http://www.w3.org/Graphics/SVG/1.1/DTD/svg11.dtd"><svg t="1539944714603" class="icon" style="" viewBox="0 0 1024 1024" version="1.1" xmlns="http://www.w3.org/2000/svg" p-id="6776" xmlns:xlink="http://www.w3.org/1999/xlink" width="200" height="200"><defs><style type="text/css"></style></defs><path d="M369.536 440.8h-224.32a65.216 65.216 0 0 1-65.12-65.184V151.36c0-35.904 29.184-65.12 65.12-65.12h224.32c35.936 0 65.152 29.216 65.152 65.12v224.256a65.248 65.248 0 0 1-65.152 65.184zM145.184 143.712a7.552 7.552 0 0 0-7.616 7.552v224.288c0 4.256 3.456 7.68 7.616 7.68h224.32a7.68 7.68 0 0 0 7.68-7.68V151.296a7.616 7.616 0 0 0-7.68-7.552h-224.32zM374.912 935.872h-224.32a65.184 65.184 0 0 1-65.152-65.12v-224.32c0-35.936 29.248-65.152 65.152-65.152h224.32c35.936 0 65.088 29.216 65.088 65.152v224.32a65.12 65.12 0 0 1-65.088 65.12z m-224.352-297.088a7.616 7.616 0 0 0-7.68 7.648v224.192a7.68 7.68 0 0 0 7.68 7.744h224.352a7.68 7.68 0 0 0 7.584-7.744v-224.192a7.648 7.648 0 0 0-7.584-7.648H150.56zM869.312 937.76h-224.32v-57.504h224.32a7.68 7.68 0 0 0 7.744-7.552v-224.352h57.44v224.352c0 35.84-29.248 65.056-65.184 65.056zM878.88 443.744h-224.32a65.28 65.28 0 0 1-65.248-65.056V154.4c0-35.936 29.312-65.184 65.248-65.184h224.32c35.872 0 64.992 29.248 64.992 65.184v224.288c0 35.84-29.12 65.056-64.992 65.056z m-224.32-297.056a7.616 7.616 0 0 0-7.744 7.712v224.288c0 4.224 3.36 7.552 7.744 7.552h224.32a7.424 7.424 0 0 0 7.488-7.552V154.4a7.68 7.68 0 0 0-7.488-7.712h-224.32z" p-id="6777" fill="#ffffff"></path><path d="M292.256 263.456a34.88 34.88 0 0 1-34.912 34.816c-19.232 0-34.88-15.552-34.88-34.816 0-19.232 15.648-34.912 34.88-34.912a35.008 35.008 0 0 1 34.912 34.912zM801.44 266.56a34.88 34.88 0 0 1-34.688 34.848 34.88 34.88 0 1 1 0-69.728c19.072 0 34.688 15.552 34.688 34.88zM796.64 759.872a34.88 34.88 0 1 1-69.76 0c0-19.2 15.616-34.88 34.944-34.88 19.04 0 34.816 15.68 34.816 34.88zM297.568 758.496a34.912 34.912 0 0 1-69.792 0 34.88 34.88 0 0 1 34.88-34.816c19.232 0 34.912 15.68 34.912 34.816z" p-id="6778" fill="#ffffff"></path></svg>