<?xml version="1.0" standalone="no"?><!DOCTYPE svg PUBLIC "-//W3C//DTD SVG 1.1//EN" "http://www.w3.org/Graphics/SVG/1.1/DTD/svg11.dtd"><svg t="1711682919593" class="icon" viewBox="0 0 1024 1024" version="1.1" xmlns="http://www.w3.org/2000/svg" p-id="31958" width="32" height="32" xmlns:xlink="http://www.w3.org/1999/xlink"><path d="M153.589901 460.837028h409.573071a153.589901 153.589901 0 0 1 153.589901 153.589901v255.98317a153.589901 153.589901 0 0 1-153.589901 153.589901H153.589901a153.589901 153.589901 0 0 1-153.589901-153.589901V614.426929a153.589901 153.589901 0 0 1 153.589901-153.589901z m0 76.794951a76.794951 76.794951 0 0 0-76.79495 76.79495v255.98317a76.794951 76.794951 0 0 0 76.79495 76.79495h409.573071a76.794951 76.794951 0 0 0 76.794951-76.79495V614.426929a76.794951 76.794951 0 0 0-76.794951-76.79495H153.589901zM437.398441 128.929251c343.938986 13.336723 542.684319 228.157799 586.278252 596.312792a38.295082 38.295082 0 0 1-33.636188 42.493206 38.371877 38.371877 0 0 1-42.646796-33.508196C908.484267 405.467868 742.223199 219.035326 439.036733 205.59621l61.691944 61.640747a38.397475 38.397475 0 0 1-54.319628 54.319629l-120.184098-120.184098A38.218287 38.218287 0 0 1 307.179803 167.352325c-0.255983-10.136933 3.506969-20.350662 11.263259-28.081354l127.991585-127.965986a38.397475 38.397475 0 0 1 54.268432 54.319628l-63.304638 63.304638z" fill="#ffffff" p-id="31959"></path></svg>