<?xml version="1.0" standalone="no"?><!DOCTYPE svg PUBLIC "-//W3C//DTD SVG 1.1//EN" "http://www.w3.org/Graphics/SVG/1.1/DTD/svg11.dtd"><svg t="1539702074319" class="icon" style="" viewBox="0 0 1024 1024" version="1.1" xmlns="http://www.w3.org/2000/svg" p-id="4164" xmlns:xlink="http://www.w3.org/1999/xlink" width="200" height="200"><defs><style type="text/css"></style></defs><path d="M512 358.555826c-12.288 0-22.26087 9.97287-22.26087 22.26087l0 268.221217c0 12.288 9.97287 22.26087 22.26087 22.26087s22.26087-9.97287 22.26087-22.26087L534.26087 380.816696C534.26087 368.528696 524.288 358.555826 512 358.555826zM512 716.176696c-12.288 0-22.26087 9.97287-22.26087 22.26087l0 44.699826c0 12.288 9.97287 22.26087 22.26087 22.26087s22.26087-9.97287 22.26087-22.26087l0-44.699826C534.26087 726.149565 524.288 716.176696 512 716.176696zM998.912 867.394783 575.688348 131.33913C559.972174 104.025043 536.754087 88.33113 512 88.33113S464.027826 104.025043 448.311652 131.33913L25.088 867.394783c-8.859826 15.426783-13.356522 30.675478-13.356522 45.345391 0 32.456348 23.908174 65.224348 77.312 65.224348l845.913043 0c53.381565 0 77.289739-32.768 77.312-65.224348C1012.268522 898.070261 1007.771826 882.821565 998.912 867.394783zM934.956522 933.420522 89.043478 933.420522c-9.861565 0-32.790261-2.025739-32.790261-20.702609 0-6.678261 2.56-14.669913 7.41287-23.129043L486.912 153.533217c15.137391-26.290087 35.06087-26.290087 50.198261 0l423.223652 736.033391c4.85287 8.45913 7.41287 16.450783 7.41287 23.129043C967.746783 931.394783 944.818087 933.420522 934.956522 933.420522z" p-id="4165"></path></svg>